<?xml version="1.0" standalone="no"?>
<!DOCTYPE svg PUBLIC "-//W3C//DTD SVG 20010904//EN"
 "http://www.w3.org/TR/2001/REC-SVG-20010904/DTD/svg10.dtd">
<svg version="1.0" xmlns="http://www.w3.org/2000/svg"
 width="2696.000000pt" height="1414.000000pt" viewBox="0 0 2696.000000 1414.000000"
 preserveAspectRatio="xMidYMid meet">

<g transform="translate(0.000000,1414.000000) scale(0.100000,-0.100000)"
fill="#000000" stroke="none">
<path d="M1935 8649 c-66 -4 -169 -15 -229 -23 -60 -9 -113 -16 -118 -16 -4 0
-8 -346 -8 -770 l0 -770 290 0 290 0 0 507 0 506 138 -6 c499 -23 867 -153
1202 -424 143 -116 399 -396 497 -545 l26 -38 -26 -38 c-110 -166 -403 -479
-554 -590 -308 -226 -611 -334 -1044 -373 -224 -20 -621 3 -791 46 l-28 7 0
-296 c0 -163 2 -296 5 -296 2 0 73 -9 157 -19 405 -51 820 -30 1187 60 525
129 990 436 1371 908 41 50 76 91 79 91 4 -1 29 -31 58 -68 127 -164 358 -392
522 -515 471 -355 1018 -516 1701 -501 161 3 375 21 478 40 l32 6 0 769 0 769
-285 0 -285 0 0 -505 0 -505 -72 0 c-109 0 -289 18 -418 41 -538 95 -925 358
-1339 912 l-43 57 55 74 c157 209 309 373 452 491 357 294 728 424 1255 442
233 7 501 -14 658 -54 l22 -5 0 295 0 294 -72 12 c-300 46 -675 49 -980 7
-461 -64 -871 -240 -1223 -523 -147 -118 -360 -338 -493 -507 -13 -17 -26 -26
-31 -20 -5 5 -43 51 -85 101 -512 620 -1102 922 -1901 973 -177 11 -272 11
-450 -1z"/>
<path d="M24130 8409 c-101 -45 -160 -138 -160 -250 0 -110 48 -193 140 -243
193 -105 427 47 407 264 -9 99 -64 182 -149 224 -67 34 -170 36 -238 5z"/>
<path d="M18460 8395 c-284 -47 -548 -181 -745 -379 -110 -111 -174 -200 -240
-334 -211 -430 -186 -971 66 -1379 67 -108 253 -299 359 -370 138 -92 286
-157 454 -200 139 -35 414 -44 567 -18 496 83 853 414 967 899 24 101 26 130
27 318 0 113 -3 209 -6 212 -3 3 -257 6 -565 6 l-559 1 -3 -211 -2 -210 315 0
315 0 -6 -27 c-40 -183 -135 -332 -265 -419 -221 -147 -563 -158 -823 -27 -92
46 -147 86 -222 165 -161 167 -236 371 -235 638 0 181 35 319 116 466 46 83
193 233 279 283 179 106 430 146 642 102 180 -37 289 -96 423 -230 l94 -93 91
63 c50 35 130 90 178 124 48 33 88 64 88 69 0 20 -100 147 -176 223 -162 161
-353 263 -599 319 -97 23 -420 28 -535 9z"/>
<path d="M8767 8373 c-4 -3 -7 -600 -7 -1325 l0 -1318 518 0 c543 0 645 7 797
48 220 61 393 160 550 317 325 324 451 844 325 1339 -133 524 -549 880 -1091
936 -110 11 -1081 14 -1092 3z m1135 -497 c212 -49 371 -173 464 -361 79 -160
113 -365 94 -566 -14 -144 -41 -246 -96 -359 -61 -124 -170 -236 -285 -293
-146 -72 -197 -80 -519 -81 l-285 -1 -3 830 c-1 457 0 836 3 844 8 20 531 9
627 -13z"/>
<path d="M24880 7055 l0 -1325 250 0 250 0 0 1325 0 1325 -250 0 -250 0 0
-1325z"/>
<path d="M13830 7915 l0 -245 -135 0 -135 0 0 -200 0 -200 134 0 135 0 3 -567
c4 -497 6 -575 21 -626 51 -175 165 -290 337 -342 124 -36 345 -29 464 16 88
33 86 26 86 242 l0 189 -22 -6 c-13 -3 -56 -11 -96 -17 -129 -18 -223 16 -262
97 -19 39 -20 62 -20 527 l0 487 198 2 197 3 3 198 2 197 -200 0 -200 0 0 245
0 245 -255 0 -255 0 0 -245z"/>
<path d="M12025 7700 c-106 -15 -187 -40 -292 -90 -278 -135 -455 -381 -509
-707 -21 -131 -14 -373 15 -488 48 -193 129 -334 267 -466 137 -130 282 -204
471 -240 83 -15 318 -6 398 16 138 38 280 127 354 222 l36 46 3 -131 3 -132
249 0 250 0 0 970 0 970 -250 0 -249 0 -3 -131 -3 -130 -39 51 c-71 93 -218
181 -366 219 -90 23 -251 33 -335 21z m337 -454 c137 -30 248 -103 322 -214
58 -88 87 -175 93 -287 18 -302 -146 -532 -422 -590 -88 -18 -142 -18 -230 0
-302 63 -478 356 -410 680 47 222 201 369 440 419 44 9 144 5 207 -8z"/>
<path d="M15780 7704 c-333 -38 -598 -218 -739 -500 -147 -296 -149 -709 -4
-999 100 -199 271 -359 471 -440 129 -53 222 -68 387 -63 130 4 161 8 230 32
143 48 264 130 338 226 l27 35 0 -132 0 -133 250 0 250 0 0 970 0 970 -250 0
-249 0 -3 -131 -3 -131 -33 46 c-67 93 -221 186 -373 225 -77 20 -233 33 -299
25z m305 -459 c183 -39 325 -165 387 -342 20 -58 23 -87 23 -203 0 -114 -4
-145 -23 -200 -63 -180 -207 -305 -399 -345 -86 -19 -140 -18 -228 0 -188 40
-327 163 -393 347 -22 63 -26 90 -26 193 -1 181 36 283 144 398 127 136 320
193 515 152z"/>
<path d="M21229 7700 c-134 -21 -233 -74 -327 -174 -69 -74 -109 -143 -148
-252 l-29 -79 -3 238 -2 237 -250 0 -250 0 0 -970 0 -970 249 0 250 0 3 493
c5 549 4 542 78 693 53 109 137 192 245 244 107 51 169 64 303 63 l112 -1 0
233 c0 129 -4 236 -8 239 -17 11 -169 15 -223 6z"/>
<path d="M22380 7700 c-183 -23 -350 -96 -489 -213 -141 -117 -245 -288 -298
-483 -25 -91 -27 -115 -27 -299 -1 -173 2 -211 21 -285 95 -374 353 -628 716
-705 90 -20 278 -19 372 0 94 20 195 60 266 108 58 38 159 138 159 156 0 6 5
11 10 11 6 0 10 -50 10 -130 l0 -130 250 0 250 0 0 970 0 970 -250 0 -250 0 0
-130 c0 -71 -3 -130 -7 -130 -5 1 -21 21 -36 45 -55 87 -218 186 -370 224 -87
23 -239 32 -327 21z m333 -455 c143 -30 280 -130 346 -254 45 -85 61 -142 67
-251 18 -297 -148 -527 -422 -585 -87 -18 -141 -18 -228 0 -213 45 -364 196
-412 412 -19 88 -15 237 10 314 33 106 96 201 170 258 137 106 298 142 469
106z"/>
<path d="M24000 6700 l0 -970 250 0 250 0 0 970 0 970 -250 0 -250 0 0 -970z"/>
</g>
</svg>
