<?xml version="1.0" standalone="no"?>
<!DOCTYPE svg PUBLIC "-//W3C//DTD SVG 20010904//EN"
 "http://www.w3.org/TR/2001/REC-SVG-20010904/DTD/svg10.dtd">
<svg version="1.0" xmlns="http://www.w3.org/2000/svg"
 width="2560.000000pt" height="1341.000000pt" viewBox="0 0 2560.000000 1341.000000"
 preserveAspectRatio="xMidYMid meet">

<g transform="translate(0.000000,1341.000000) scale(0.100000,-0.100000)"
fill="#000000" stroke="none">
<path d="M1743 10872 c-219 -78 -415 -264 -651 -617 -82 -124 -156 -265 -187
-360 -37 -109 -39 -227 -5 -303 28 -65 92 -123 169 -154 49 -19 70 -22 171
-18 227 8 245 6 297 -26 143 -89 128 -270 -45 -539 -67 -105 -217 -309 -301
-410 -151 -182 -242 -278 -606 -640 -204 -203 -390 -395 -413 -425 -141 -191
-197 -377 -158 -530 56 -217 246 -342 458 -300 169 33 284 133 457 397 204
312 273 395 396 475 239 156 471 14 415 -253 -17 -78 -81 -204 -154 -303 -73
-99 -342 -382 -542 -571 -431 -405 -542 -528 -624 -693 -56 -111 -78 -180 -92
-283 -21 -163 23 -310 122 -403 201 -188 513 -127 801 157 160 158 257 281
511 652 941 1371 1456 2017 2483 3115 127 136 348 372 492 526 143 153 286
310 316 347 82 103 147 218 185 325 29 82 35 115 39 213 5 100 3 127 -16 187
-78 257 -336 382 -596 288 -94 -34 -166 -81 -262 -170 -155 -145 -294 -328
-599 -788 -101 -152 -272 -394 -381 -538 -109 -144 -268 -358 -353 -474 -195
-267 -294 -395 -412 -532 -52 -60 -115 -136 -142 -169 -66 -83 -201 -220 -257
-261 -190 -139 -376 -118 -460 51 -28 58 -31 71 -27 137 5 90 33 155 120 276
102 141 245 303 472 532 260 263 318 344 352 487 11 48 15 95 11 158 -8 143
-54 244 -152 334 -70 65 -124 86 -220 86 -112 0 -155 -24 -328 -182 -100 -90
-161 -123 -237 -130 -72 -7 -115 9 -135 48 -50 95 12 186 287 431 229 203 299
293 334 429 33 128 -6 261 -103 349 -71 65 -143 92 -258 97 -80 3 -99 1 -172
-25z"/>
<path d="M6540 10745 c-209 -59 -327 -173 -543 -526 -179 -292 -208 -332 -442
-594 -292 -328 -383 -447 -445 -580 -49 -104 -63 -170 -58 -280 3 -71 9 -102
30 -147 60 -129 176 -209 317 -216 97 -6 157 9 316 73 164 67 233 85 329 85
161 0 286 -89 311 -222 8 -43 -14 -138 -49 -207 -14 -27 -75 -115 -135 -195
-171 -226 -228 -364 -218 -521 8 -141 81 -275 190 -349 70 -48 127 -66 206
-66 115 0 200 40 292 137 49 51 54 59 202 283 128 195 236 327 443 541 95 98
193 208 218 243 110 153 147 315 111 485 -20 96 -52 156 -117 217 -64 60 -134
88 -223 87 -116 -2 -180 -40 -360 -213 -129 -124 -173 -152 -274 -170 -138
-25 -271 49 -311 174 -8 23 -11 68 -8 112 10 145 92 264 372 534 445 430 464
453 513 624 83 284 -65 568 -352 676 -79 30 -235 37 -315 15z"/>
<path d="M15440 9705 c-158 -44 -282 -144 -346 -279 -167 -351 82 -737 476
-740 149 -1 276 45 376 137 115 105 167 222 166 377 -1 116 -25 199 -82 287
-61 92 -143 156 -258 200 -86 32 -248 41 -332 18z"/>
<path d="M9147 9474 c-4 -4 -7 -1206 -7 -2671 l0 -2663 448 2 447 3 5 2000 c5
1846 6 1997 21 1960 37 -94 703 -1748 824 -2050 229 -568 748 -1859 759 -1887
l10 -28 162 0 162 0 95 243 c53 133 148 375 212 537 64 162 145 367 180 455
86 218 175 444 290 735 53 135 174 443 270 685 96 242 226 573 290 735 64 162
144 364 177 447 33 84 64 155 69 159 5 3 9 -783 9 -1995 l0 -2001 495 0 495 0
-2 2668 -3 2667 -653 3 -653 2 -14 -32 c-15 -37 -97 -253 -592 -1568 -80 -212
-176 -466 -213 -565 -117 -311 -420 -1112 -486 -1289 -62 -165 -70 -184 -77
-175 -2 2 -76 193 -165 424 -88 231 -314 818 -502 1305 -188 487 -422 1097
-522 1355 -99 259 -188 486 -197 505 l-16 35 -656 3 c-360 1 -658 -1 -662 -4z"/>
<path d="M4640 8362 c-188 -53 -353 -180 -532 -412 -36 -47 -129 -179 -208
-295 -364 -536 -849 -1152 -1591 -2021 -284 -332 -935 -1113 -1130 -1354 -330
-409 -422 -549 -484 -740 -38 -117 -41 -271 -7 -375 47 -144 165 -273 299
-326 49 -20 76 -24 178 -24 100 0 131 4 187 23 123 43 265 153 390 302 135
162 435 607 873 1295 369 580 672 1024 834 1224 98 121 280 320 407 443 290
284 538 411 829 425 129 7 196 -8 264 -57 81 -59 112 -177 75 -287 -56 -164
-321 -468 -1100 -1264 -344 -351 -427 -457 -509 -647 -70 -161 -83 -331 -36
-454 56 -145 219 -248 391 -248 123 0 226 48 343 159 135 129 234 278 472 711
188 344 310 516 483 685 110 108 185 164 292 219 117 60 207 86 321 93 189 11
305 -44 377 -182 24 -45 27 -61 26 -150 0 -88 -4 -109 -32 -180 -17 -44 -55
-119 -84 -168 -149 -247 -556 -739 -921 -1113 -244 -250 -315 -341 -376 -486
-23 -56 -26 -76 -26 -178 0 -111 2 -118 35 -183 42 -84 140 -181 229 -225 180
-90 398 -80 553 25 157 106 226 199 633 863 407 662 598 921 959 1298 211 221
283 327 315 467 38 167 8 308 -90 419 -49 55 -173 119 -263 135 -87 16 -263
13 -406 -5 -69 -9 -190 -17 -270 -18 -133 -1 -149 1 -192 23 -141 69 -190 222
-138 420 54 201 2 411 -134 547 -104 104 -200 137 -440 154 -226 16 -319 43
-394 114 -62 57 -77 99 -76 206 1 104 21 171 118 405 120 290 115 514 -15 644
-23 22 -70 55 -105 72 -57 28 -77 33 -162 36 -72 2 -114 -2 -162 -15z"/>
<path d="M18627 8119 c-360 -33 -655 -164 -883 -393 -87 -86 -123 -134 -211
-272 -9 -15 -12 45 -12 284 l-1 302 -450 0 -450 0 0 -1950 0 -1950 450 0 450
0 0 1178 c0 742 4 1208 10 1259 30 239 122 432 269 564 107 97 260 174 411
206 114 24 363 25 472 1 270 -60 419 -206 496 -487 l27 -96 5 -1310 5 -1310
453 -3 452 -2 0 1279 c0 815 -4 1326 -11 1408 -46 564 -274 960 -664 1155
-223 112 -530 164 -818 137z"/>
<path d="M22211 8119 c-944 -74 -1633 -746 -1753 -1709 -20 -157 -17 -556 5
-705 96 -656 436 -1151 978 -1421 183 -91 340 -143 569 -186 137 -25 534 -36
707 -18 813 82 1340 498 1478 1166 13 62 13 79 3 85 -16 10 -839 11 -854 1 -5
-4 -16 -32 -23 -63 -27 -125 -113 -263 -216 -345 -107 -87 -243 -141 -426
-170 -142 -23 -417 -15 -538 15 -461 116 -724 471 -768 1038 l-6 83 1429 2
1429 3 -2 240 c-2 442 -64 752 -209 1050 -159 329 -381 558 -705 729 -295 155
-721 235 -1098 205z m417 -675 c412 -83 640 -373 697 -886 l6 -58 -970 0 -971
0 0 28 c0 35 33 171 61 253 91 266 266 477 486 588 76 38 215 79 308 91 93 12
286 4 383 -16z"/>
<path d="M15140 6090 l0 -1950 450 0 450 0 0 1950 0 1950 -450 0 -450 0 0
-1950z"/>
<path d="M24931 5074 c-178 -48 -324 -197 -366 -375 -72 -306 128 -592 442
-631 314 -39 583 194 583 507 0 153 -54 280 -163 381 -60 56 -152 106 -227
123 -64 15 -206 12 -269 -5z m331 -111 c257 -121 316 -483 113 -689 -202 -204
-566 -144 -688 114 -30 64 -32 73 -32 187 1 147 20 206 96 290 95 104 179 136
339 132 94 -2 112 -6 172 -34z"/>
<path d="M24890 4586 l0 -256 65 0 65 0 0 95 c0 86 2 95 19 95 13 0 36 -29 75
-95 l57 -95 64 0 c36 0 65 4 65 9 0 5 -25 49 -55 98 -30 50 -55 94 -55 99 0 5
14 17 30 26 60 34 78 146 33 207 -41 55 -76 65 -225 69 l-138 4 0 -256z m247
128 c18 -24 16 -64 -4 -86 -11 -13 -30 -18 -65 -18 l-48 0 0 66 0 67 52 -5
c34 -4 56 -12 65 -24z"/>
</g>
</svg>
