<?xml version="1.0" standalone="no"?>
<!DOCTYPE svg PUBLIC "-//W3C//DTD SVG 20010904//EN"
 "http://www.w3.org/TR/2001/REC-SVG-20010904/DTD/svg10.dtd">
<svg version="1.0" xmlns="http://www.w3.org/2000/svg"
 width="626.000000pt" height="626.000000pt" viewBox="0 0 626.000000 626.000000"
 preserveAspectRatio="xMidYMid meet">

<g transform="translate(0.000000,626.000000) scale(0.100000,-0.100000)"
fill="#000000" stroke="none">
<path d="M2999 4810 c-346 -31 -658 -177 -904 -425 -218 -218 -352 -472 -412
-780 -12 -65 -17 -138 -17 -265 1 -190 17 -298 70 -456 183 -547 670 -937
1247 -998 l57 -6 0 29 c0 28 -2 29 -62 36 -321 36 -611 177 -843 409 -204 205
-327 430 -387 708 -30 139 -32 420 -5 548 118 552 515 972 1045 1105 388 97
779 29 1122 -195 115 -75 311 -269 385 -380 377 -567 311 -1292 -161 -1780
l-72 -75 23 -17 c23 -17 24 -17 113 76 346 362 478 879 352 1372 -155 602
-673 1039 -1297 1093 -129 12 -129 12 -254 1z"/>
<path d="M2925 4565 c-340 -63 -613 -235 -805 -507 -255 -361 -295 -841 -105
-1243 176 -369 567 -652 955 -691 l68 -6 7 46 c11 71 76 136 135 136 19 0 20
6 20 124 0 190 43 295 157 382 132 101 333 104 459 8 24 -19 44 -31 44 -29 0
3 -10 25 -21 48 -70 138 -190 260 -330 337 l-51 28 -56 -39 c-106 -75 -244
-105 -365 -80 -65 14 -184 71 -211 100 -18 20 -19 20 -60 -1 -154 -78 -286
-217 -360 -380 -36 -79 -66 -184 -67 -239 -1 -77 -10 -77 -78 -3 -147 161
-242 353 -292 589 -19 88 -16 333 5 426 100 458 413 791 858 915 77 21 122 27
258 31 143 4 179 2 269 -17 236 -48 434 -155 605 -326 244 -245 371 -597 337
-934 -25 -243 -118 -465 -275 -655 -36 -43 -41 -55 -36 -84 l5 -33 50 53 c150
160 255 375 301 615 25 133 15 384 -19 516 -34 130 -95 267 -170 380 -69 104
-210 252 -308 321 -144 102 -336 181 -515 212 -104 18 -312 18 -409 0z"/>
<path d="M3041 3990 c-77 -16 -169 -66 -224 -122 -219 -219 -152 -587 130
-721 64 -30 74 -32 184 -32 113 0 117 1 190 37 94 46 168 122 212 215 27 58
32 82 35 165 4 79 0 108 -18 162 -43 129 -158 243 -284 281 -65 20 -168 27
-225 15z"/>
<path d="M3517 2830 c-108 -27 -209 -116 -246 -216 -18 -47 -21 -78 -21 -209
l0 -155 -48 0 c-26 0 -57 -7 -68 -15 -42 -29 -45 -54 -42 -404 l3 -333 28 -24
28 -24 445 0 445 0 24 26 25 27 0 344 0 345 -29 29 c-24 23 -38 29 -74 29
l-45 0 -4 163 c-3 150 -5 166 -30 218 -36 78 -89 133 -162 169 -68 33 -165 46
-229 30z m199 -78 c66 -34 101 -69 133 -134 31 -60 31 -63 31 -215 l0 -153
-287 2 -288 3 0 150 c0 136 2 155 24 203 28 62 103 134 164 156 58 22 169 16
223 -12z m-61 -778 c32 -35 32 -74 -1 -113 -23 -28 -24 -33 -14 -71 6 -23 14
-48 17 -56 4 -11 -8 -14 -61 -14 -36 0 -66 4 -66 8 0 5 7 31 15 57 14 47 14
49 -10 71 -33 30 -34 88 -3 121 31 33 91 32 123 -3z"/>
<path d="M3483 2705 c-99 -50 -133 -125 -133 -297 l0 -108 218 0 c282 0 265
-10 260 155 -3 119 -4 125 -33 166 -17 24 -50 57 -73 74 -37 25 -54 30 -115
33 -62 3 -79 0 -124 -23z"/>
</g>
</svg>
