<?xml version="1.0" standalone="no"?>
<!DOCTYPE svg PUBLIC "-//W3C//DTD SVG 20010904//EN"
 "http://www.w3.org/TR/2001/REC-SVG-20010904/DTD/svg10.dtd">
<svg version="1.0" xmlns="http://www.w3.org/2000/svg"
 width="2000.000000pt" height="1047.000000pt" viewBox="0 0 2000.000000 1047.000000"
 preserveAspectRatio="xMidYMid meet">

<g transform="translate(0.000000,1047.000000) scale(0.100000,-0.100000)"
fill="#000000" stroke="none">
<path d="M0 6905 l0 -305 635 0 635 0 0 -1635 0 -1635 350 0 350 0 0 1635 0
1635 635 0 635 0 0 305 0 305 -1620 0 -1620 0 0 -305z"/>
<path d="M13206 7178 c-8 -18 -313 -883 -679 -1923 -366 -1039 -669 -1898
-672 -1907 -7 -17 14 -18 358 -18 l365 0 164 498 164 497 676 3 677 2 165
-497 164 -498 361 -3 c286 -2 361 0 361 10 0 7 -306 879 -678 1938 l-678 1925
-368 3 -367 2 -13 -32z m394 -676 c0 -9 25 -117 54 -238 37 -150 115 -405 240
-785 103 -310 186 -567 186 -571 0 -5 -225 -8 -500 -8 -275 0 -500 3 -500 8 0
4 79 243 175 532 171 510 243 746 300 977 15 62 31 110 36 107 5 -3 9 -13 9
-22z"/>
<path d="M10150 5553 c0 -1447 -1 -1423 60 -1606 47 -139 101 -228 205 -333
207 -209 488 -305 885 -303 234 2 202 -24 292 234 43 121 90 257 106 301 l30
82 -207 -6 c-174 -4 -220 -2 -287 13 -207 45 -329 158 -379 350 -13 50 -15
152 -15 647 l0 588 315 0 315 0 0 275 0 275 -315 0 -315 0 0 400 0 400 -345 0
-345 0 0 -1317z"/>
<path d="M8715 6173 c-131 -12 -320 -65 -430 -121 -301 -151 -446 -374 -448
-687 0 -209 56 -353 196 -502 131 -138 308 -242 642 -378 367 -150 479 -226
505 -342 18 -78 -27 -173 -103 -217 -69 -41 -126 -57 -223 -63 -223 -14 -493
73 -689 221 -37 28 -76 57 -86 64 -19 14 -44 -21 -278 -386 l-54 -83 28 -29
c49 -51 191 -146 303 -203 257 -131 513 -186 817 -174 176 7 311 33 439 84
341 136 537 384 553 702 8 146 -13 248 -72 369 -111 224 -313 367 -791 562
-391 160 -484 229 -484 362 0 93 74 177 190 215 88 29 305 24 433 -10 115 -31
264 -99 351 -161 l62 -44 128 255 c146 294 145 259 17 344 -223 150 -500 227
-811 226 -85 0 -173 -2 -195 -4z"/>
<path d="M4325 6139 c-93 -13 -246 -66 -328 -115 -142 -83 -250 -203 -327
-365 l-39 -84 -1 268 0 267 -335 0 -335 0 0 -1390 0 -1390 344 0 344 0 5 643
c4 696 7 730 63 909 92 291 289 488 565 564 48 14 101 18 212 19 l147 0 0 336
0 337 -22 6 c-32 8 -221 5 -293 -5z"/>
<path d="M16965 6143 c-186 -25 -365 -107 -486 -221 -92 -87 -145 -159 -200
-276 l-38 -81 0 273 -1 272 -330 0 -330 0 0 -972 1 -973 20 40 c291 566 683
1048 1076 1322 148 103 375 203 523 230 l45 9 3 184 c2 140 -1 185 -10 192
-13 8 -216 9 -273 1z"/>
<path d="M4883 5123 c4 -963 5 -1002 25 -1108 97 -506 397 -745 937 -745 425
0 772 153 930 409 l40 65 3 -207 2 -207 330 0 330 0 0 1395 0 1395 -345 0
-345 0 0 -662 c0 -384 -4 -701 -10 -753 -53 -462 -328 -768 -720 -801 -208
-18 -371 68 -431 224 -47 126 -48 150 -49 1100 l0 892 -351 0 -350 0 4 -997z"/>
</g>
</svg>
